HIERARCHY
ROOT Hips
{
    OFFSET 13.45751953125 89.5123176574707 -17.967666625976562
    CHANNELS 6 Xposition Yposition Zposition Zrotation Xrotation Yrotation
    JOINT RightUpLeg
    {
        OFFSET -13.45751953125 0.0 0.0
        CHANNELS 3 Zrotation Xrotation Yrotation
        JOINT RightLeg
        {
            OFFSET 0.0 -44.5931510925293 0.0
            CHANNELS 3 Zrotation Xrotation Yrotation
            JOINT RightFoot
            {
                OFFSET 0.0 -44.919166564941406 0.0
                CHANNELS 3 Zrotation Xrotation Yrotation
                End Site
                {
                    OFFSET 0.0 0.0 17.967666625976562
                }
            }
        }
    }
    JOINT LeftUpLeg
    {
        OFFSET 13.45751953125 0.0 0.0
        CHANNELS 3 Zrotation Xrotation Yrotation
        JOINT LeftLeg
        {
            OFFSET 0.0 -44.5931510925293 0.0
            CHANNELS 3 Zrotation Xrotation Yrotation
            JOINT LeftFoot
            {
                OFFSET 0.0 -44.919166564941406 0.0
                CHANNELS 3 Zrotation Xrotation Yrotation
                End Site
                {
                    OFFSET 0.0 0.0 17.967666625976562
                }
            }
        }
    }
    JOINT Spine
    {
        OFFSET 0.0 24.11297035217285 0.0
        CHANNELS 3 Zrotation Xrotation Yrotation
        JOINT Spine3
        {
            OFFSET 0.0 26.024946212768555 0.0
            CHANNELS 3 Zrotation Xrotation Yrotation
            JOINT Neck
            {
                OFFSET 0.0 11.873250961303711 0.0
                CHANNELS 3 Zrotation Xrotation Yrotation
                End Site
                {
                    OFFSET 0.0 4.749300479888916 0.0
                }
            }
            JOINT LeftArm
            {
                OFFSET 14.50822639465332 0.0 0.0
                CHANNELS 3 Zrotation Xrotation Yrotation
                JOINT LeftForeArm
                {
                    OFFSET 29.005714416503906 0.0 0.0
                    CHANNELS 3 Zrotation Xrotation Yrotation
                    JOINT LeftHand
                    {
                        OFFSET 22.188945770263672 0.0 0.0
                        CHANNELS 3 Zrotation Xrotation Yrotation
                        End Site
                        {
                            OFFSET 8.875577926635742 0.0 0.0
                        }
                    }
                }
            }
            JOINT RightArm
            {
                OFFSET -14.50822639465332 0.0 0.0
                CHANNELS 3 Zrotation Xrotation Yrotation
                JOINT RightForeArm
                {
                    OFFSET -29.005714416503906 0.0 0.0
                    CHANNELS 3 Zrotation Xrotation Yrotation
                    JOINT RightHand
                    {
                        OFFSET -22.188945770263672 0.0 0.0
                        CHANNELS 3 Zrotation Xrotation Yrotation
                        End Site
                        {
                            OFFSET -8.875577926635742 0.0 0.0
                        }
                    }
                }
            }
        }
    }
}
MOTION
Frames: 4
Frame Time: 0.03333333333333333
0.00044905682443641126 93.16989135742188 -0.0007859162287786603 6.238063203471827 18.081440632203865 -19.642893264555827 -14.963408369996055 -43.01345957142282 -7.087463476522901 11.116762481099663 57.098674796629474 -3.003768028986525 1.9461705991891081e-31 -6.4108055298248995e-15 3.4787316828507206e-15 17.807766008271617 -40.30018592833532 14.966729925748695 -14.50098502244166 56.12362009653639 -2.028499019633914 -7.951386703658794e-16 2.758691436281349e-33 -3.975693351829397e-16 -1.181566358068861 30.369326016581695 -1.7506236406601956 -8.696906344628243e-07 1.5658219535328852e-06 3.1335994130341613 0.6873973168668666 -38.57579987643726 -178.79080225734276 143.21538378824766 -19.727798980672027 -120.36593650190113 1.3161741986792838e-06 -1.4776342354440808e-06 133.07215336975415 0.0 6.3611093629270335e-15 0.0 -140.66534631663492 -17.828286932782564 117.47712240397148 -1.6842978779610016e-06 2.468841524159671e-07 -130.29862283866652 6.3611093629270335e-15 -6.3611093629270335e-15 1.5902773407317588e-15
0.00039740384090691805 93.16991424560547 -0.0008161239675246179 5.827383836938991 16.877590066558632 -19.51662160088957 -14.033245814545023 -39.7304046337988 -5.86561503891702 10.349506127101776 54.21142377936954 -2.704306565920522 7.951386703658792e-16 -1.793149433582877e-32 -2.5842006786891076e-15 16.47990611906668 -37.10030109851399 13.297733271612504 -13.977195718383438 53.16939337267457 -2.358594022623288 -1.987846675914698e-16 1.034509288605506e-33 -5.963540027744094e-16 -0.8705387417589825 29.932968219352418 -2.0178058023871985 -5.806322684098681e-07 -1.3541945321167114e-06 3.259064161956906 0.3397942755439459 -36.83931475459423 -178.44758640603277 142.03120442194452 -20.66764537631091 -121.56021869097684 1.301505877540657e-06 3.553736623797307e-06 132.51121442681946 3.1805546814635164e-15 -4.4139062980501586e-32 -1.5902773407317582e-15 -139.8069255357234 -18.981332541926424 118.89636661526514 -1.8634494677692762e-06 -6.240457923824619e-06 -129.59619541384984 -1.7655625192200634e-31 -6.3611093629270335e-15 -3.1805546814635168e-15
0.000344110099831596 93.16996002197266 -0.0008336651953868568 5.423648084168909 15.928066377569072 -19.30186295834772 -13.033613304452397 -36.61211700697675 -4.733681341394313 9.768669090883147 51.0397693204143 -2.6634548534957734 -3.975693351829397e-16 3.4483642953516864e-34 -9.939233379573492e-17 15.249902704169806 -34.088166340189275 11.769274453944629 -13.118582947713545 50.312039629373146 -2.819140611054293 3.879409832270648e-34 -4.969616689786745e-17 8.945310041616142e-16 -0.6843117173212524 29.373008870983416 -2.186759667830195 5.954878867692741e-07 -7.551280897319909e-06 3.276574310233719 0.31837044130156905 -35.15295426773031 -179.0375525290437 141.4750525419116 -21.71957551796885 -122.32224847171851 1.5605378125894427e-06 -4.657392145005412e-06 131.69336140342085 8.827812596100317e-32 6.3611093629270335e-15 -1.5902773407317584e-15 -138.80584920093415 -19.84038019272823 119.77760965167147 1.1809997209657667e-06 -2.3056307844343804e-06 -129.7712682442949 -8.827812596100317e-32 -6.3611093629270335e-15 -1.5902773407317584e-15
0.0003131386183667928 93.17000579833984 -0.0008667564252391458 4.701953415711954 14.407871879677506 -19.111506350838997 -12.069969916957632 -32.68608923901069 -3.79150143100008 9.06444444393764 47.66613556800879 -2.3468027401505367 -5.963540027744094e-16 1.1120974852509189e-32 -2.1369351766083005e-15 14.089744031649783 -30.55174138595022 10.0253721918597 -12.473679435162506 47.63282995526651 -2.932406182199711 0.0 0.0 5.963540027744094e-16 -0.315587578180246 28.913541976918363 -2.3078881989694833 -3.7315419945835744e-07 3.870525540917866e-06 3.0869187150334043 0.9367446759643419 -33.31800687259343 -178.27436612590685 140.74456252452262 -22.828158117682722 -123.4575209803933 -3.927889952043403e-06 -4.1155394862711294e-06 131.10475233407124 0.0 6.3611093629270335e-15 0.0 -137.59222423166847 -21.06107000132532 120.98505276711565 -3.0526960364186863e-06 -5.225947968351282e-07 -129.2553021522636 0.0 0.0 3.180554681463516e-15
